<?xml version="1.0" encoding="utf-8"?>
<!-- Generator: Adobe Illustrator 19.1.0, SVG Export Plug-In . SVG Version: 6.00 Build 0)  -->
<svg version="1.1" id="Layer_1" xmlns="http://www.w3.org/2000/svg" xmlns:xlink="http://www.w3.org/1999/xlink" x="0px" y="0px"
	 viewBox="0 0 169.2 169.2" enable-background="new 0 0 169.2 169.2" xml:space="preserve">
<g>
	<g>
		<g>
			<path d="M127.7,122.6H42.5c-2.2,0-3.9-1.8-3.9-3.9V33.5c0-2.2,1.8-3.9,3.9-3.9h85.2c2.2,0,3.9,1.8,3.9,3.9v85.2
				C131.6,120.9,129.9,122.6,127.7,122.6L127.7,122.6z M46.4,114.8h77.4V37.4H46.4V114.8L46.4,114.8z"/>
		</g>
		<g>
			<path d="M126.3,58.2H43.9c-1.1,0-2-0.9-2-2c0-1.1,0.9-2,2-2h82.4c1.1,0,2,0.9,2,2
				C128.3,57.4,127.4,58.2,126.3,58.2L126.3,58.2z"/>
		</g>
		<path d="M56.3,41c-2.7,0-4.9,2.2-4.9,4.9c0,2.7,2.2,4.9,4.9,4.9s4.9-2.2,4.9-4.9C61.3,43.3,59.1,41,56.3,41
			L56.3,41z"/>
		<path d="M69.7,41c-2.7,0-4.9,2.2-4.9,4.9c0,2.7,2.2,4.9,4.9,4.9s4.9-2.2,4.9-4.9C74.6,43.3,72.4,41,69.7,41
			L69.7,41z"/>
		<path d="M83.1,41c-2.7,0-4.9,2.2-4.9,4.9c0,2.7,2.2,4.9,4.9,4.9c2.7,0,4.9-2.2,4.9-4.9C88,43.3,85.8,41,83.1,41
			L83.1,41z"/>
	</g>
	<g>
		<g>
			<g>
				<path d="M108.6,102.7h-25c-2.2,0-3.9-1.8-3.9-3.9c0-2.2,1.8-3.9,3.9-3.9h25c2.2,0,3.9,1.8,3.9,3.9
					C112.5,100.9,110.7,102.7,108.6,102.7L108.6,102.7z"/>
			</g>
		</g>
		<g>
			<g>
				<path d="M61.6,102.7c-1,0-2-0.4-2.8-1.1c-1.5-1.5-1.5-4,0-5.5l11.4-11.4L58.8,73.1c-1.5-1.5-1.5-4,0-5.5
					c1.5-1.5,4-1.5,5.5,0l14.2,14.2c1.5,1.5,1.5,4,0,5.5l-14.2,14.2C63.6,102.3,62.6,102.7,61.6,102.7L61.6,102.7z"/>
			</g>
		</g>
	</g>
</g>
</svg>
